#!OML:ASF E:\Steps\Project 1\Capture day 1\Session 2\Subject.ASF
:FULLY-SPECIFIED
:DEGREES
159
root 0.841945 18.7886 18.7508 -159.667 -4.92586 188.114
lowerback -23.5348 -5.58417 -10.7375
upperback -1.38728 -5.09226 1.05966
thorax 12.6623 -3.20061 5.5401
lowerneck -2.70059 -8.91559 -0.544468
upperneck 20.5372 -12.0651 5.34782
head 7.09285 -4.91766 1.02245
rclavicle 2.48481e-014 1.90833e-014
rhumerus -49.1956 -17.024 -74.7135
rradius 35.4988
rwrist -5.93437
rhand -0.702943 -56.0043
rfingers 7.12502
rthumb 24.9169 -84.4001
lclavicle 2.48481e-014 1.90833e-014
lhumerus -33.5177 -15.094 69.2403
lradius 36.4027
lwrist 4.74499
lhand -19.9688 -11.1776
lfingers 7.12502
lthumb 6.36995 18.7066
rfemur -52.1467 -8.44058 7.85305
rtibia 33.0215
rfoot 0.545542 -13.0315
rtoes -22.2861
lfemur -24.9736 -11.8183 -4.4529
ltibia 40.3166
lfoot -32.4215 2.18786
ltoes -21.3199
160
root 0.920695 18.7612 18.6787 -159.843 -5.22161 188.364
lowerback -23.5462 -5.68887 -10.8962
upperback -1.33238 -5.18226 1.10802
thorax 12.7707 -3.2562 5.64931
lowerneck -2.85491 -8.9453 -0.716045
upperneck 20.7428 -12.1386 5.57381
head 7.21539 -4.92819 1.10531
rclavicle -1.23246e-014 -1.27222e-014
rhumerus -49.5625 -16.9639 -74.6724
rradius 35.521
rwrist -5.76543
rhand -1.66115 -51.6144
rfingers 7.12502
rthumb 23.9984 -80.1342
lclavicle -1.23246e-014 -1.27222e-014
lhumerus -33.3377 -15.5683 68.9556
lradius 36.696
lwrist 4.8855
lhand -19.8344 -10.8948
lfingers 7.12502
lthumb 6.49973 18.9855
rfemur -51.7541 -8.14866 6.90041
rtibia 31.913
rfoot 0.97119 -13.7247
rtoes -21.4251
lfemur -24.5636 -12.0553 -3.82409
ltibia 40.3037
lfoot -32.744 1.87405
ltoes -19.8267
161
root 0.998242 18.7361 18.6088 -159.99 -5.5313 188.575
lowerback -23.4976 -5.78541 -11.0111
upperback -1.36465 -5.29164 1.12026
thorax 12.7387 -3.31269 5.6909
lowerneck -2.78662 -8.955 -0.810191
upperneck 20.9725 -12.1443 5.66152
head 7.29063 -4.91 1.14907
rclavicle -9.93923e-015 7.95139e-015
rhumerus -50.0039 -16.5596 -74.905
rradius 35.6804
rwrist -6.21751
rhand -0.56984 -55.125
rfingers 7.12502
rthumb 25.0445 -83.503
lclavicle -9.93923e-015 7.95139e-015
lhumerus -33.1142 -15.8363 68.6329
lradius 36.6648
lwrist 4.64373
lhand -20.0875 -10.7612
lfingers 7.12502
lthumb 6.25535 19.1265
rfemur -51.3647 -7.97328 5.95647
rtibia 30.8517
rfoot 1.18933 -14.3251
rtoes -19.8173
lfemur -24.2147 -12.2405 -3.24228
ltibia 40.3303
lfoot -32.9633 1.562
ltoes -18.5817
162
root 1.07225 18.7145 18.5391 -160.079 -5.87145 188.812
lowerback -23.5308 -5.86523 -11.0487
upperback -1.40493 -5.39044 1.11068
thorax 12.7308 -3.36046 5.66272
lowerneck -2.73626 -9.12795 -0.712736
upperneck 21.1668 -12.3675 5.56233
head 7.34176 -5.00249 1.0857
rclavicle -2.0276e-014 2.70347e-014
rhumerus -50.5076 -16.1795 -75.0869
rradius 35.826
rwrist -6.44523
rhand -0.779417 -56.5054
rfingers 7.12502
rthumb 24.8436 -84.9113
lclavicle -2.0276e-014 2.70347e-014
lhumerus -33.1252 -16.2314 68.2801
lradius 36.9693
lwrist 4.66785
lhand -19.915 -10.5898
lfingers 7.12502
lthumb 6.42187 19.2929
rfemur -51 -8.06985 5.21178
rtibia 29.6628
rfoot 1.81104 -14.8179
rtoes -20.4555
lfemur -24.0118 -12.5089 -2.6148
ltibia 40.5055
lfoot -33.3149 1.02264
ltoes -16.1646
163
root 1.13984 18.6437 18.3924 -160.368 -6.33786 187.514
lowerback -24.2324 -6.36021 -12.4256
upperback -0.788908 -5.50588 0.811145
thorax 13.2541 -3.48488 5.63538
lowerneck -2.78128 -9.26245 -0.704852
upperneck 21.3972 -12.5459 5.50773
head 7.42837 -5.07394 1.04848
rclavicle -8.36883e-014 6.36111e-015
rhumerus -51.0766 -15.93 -75.1517
rradius 35.9957
rwrist -6.47562
rhand -2.3962 -52.8109
rfingers 7.12502
rthumb 23.2933 -81.4218
lclavicle -8.36883e-014 6.36111e-015
lhumerus -33.1127 -16.7134 67.9319
lradius 37.3351
lwrist 4.79951
lhand -19.6238 -10.5909
lfingers 7.12502
lthumb 6.70297 19.283
rfemur -49.773 -10.0422 3.29483
rtibia 28.2658
rfoot 2.87931 -14.083
rtoes -22.8423
lfemur -22.7518 -13.7724 -4.18239
ltibia 39.9642
lfoot -33.579 0.713408
ltoes -15.0776
